<svg width="190" height="108" viewBox="0 0 190 108" fill="none" xmlns="http://www.w3.org/2000/svg">
<path d="M-2.81334e-05 45.696C-2.81334e-05 36.992 1.96264 29.184 5.88797 22.272C9.81331 15.2747 15.1466 9.81333 21.888 5.88799C28.7146 1.96266 36.2666 -7.62939e-06 44.544 -7.62939e-06C54.272 -7.62939e-06 62.7626 2.34666 70.016 7.03999C77.2693 11.7333 82.56 18.3893 85.888 27.008H71.936C69.4613 21.632 65.8773 17.4933 61.184 14.592C56.576 11.6907 51.0293 10.24 44.544 10.24C38.3146 10.24 32.7253 11.6907 27.776 14.592C22.8266 17.4933 18.944 21.632 16.128 27.008C13.312 32.2987 11.904 38.528 11.904 45.696C11.904 52.7787 13.312 59.008 16.128 64.384C18.944 69.6747 22.8266 73.7707 27.776 76.672C32.7253 79.5733 38.3146 81.024 44.544 81.024C51.0293 81.024 56.576 79.616 61.184 76.8C65.8773 73.8987 69.4613 69.76 71.936 64.384H85.888C82.56 72.9173 77.2693 79.5307 70.016 84.224C62.7626 88.832 54.272 91.136 44.544 91.136C36.2666 91.136 28.7146 89.216 21.888 85.376C15.1466 81.4507 9.81331 76.032 5.88797 69.12C1.96264 62.208 -2.81334e-05 54.4 -2.81334e-05 45.696ZM174.779 107.264L156.987 89.472C152.635 90.6667 148.198 91.264 143.675 91.264C135.398 91.264 127.846 89.344 121.019 85.504C114.192 81.5787 108.774 76.16 104.763 69.248C100.838 62.2507 98.875 54.4 98.875 45.696C98.875 36.992 100.838 29.184 104.763 22.272C108.774 15.2747 114.192 9.85599 121.019 6.01599C127.846 2.09066 135.398 0.127991 143.675 0.127991C152.038 0.127991 159.632 2.09066 166.459 6.01599C173.286 9.85599 178.662 15.232 182.587 22.144C186.512 29.056 188.475 36.9067 188.475 45.696C188.475 54.2293 186.598 61.9093 182.843 68.736C179.088 75.5627 173.926 80.9387 167.355 84.864L189.883 107.264H174.779ZM110.779 45.696C110.779 52.7787 112.187 59.008 115.003 64.384C117.904 69.76 121.83 73.8987 126.779 76.8C131.814 79.7013 137.446 81.152 143.675 81.152C149.904 81.152 155.494 79.7013 160.443 76.8C165.478 73.8987 169.403 69.76 172.219 64.384C175.12 59.008 176.571 52.7787 176.571 45.696C176.571 38.528 175.12 32.2987 172.219 27.008C169.403 21.632 165.52 17.4933 160.571 14.592C155.622 11.6907 149.99 10.24 143.675 10.24C137.36 10.24 131.728 11.6907 126.779 14.592C121.83 17.4933 117.904 21.632 115.003 27.008C112.187 32.2987 110.779 38.528 110.779 45.696Z" fill="white"/>
</svg>
